<?xml version="1.0" encoding="utf-8"?>
<svg xmlns="http://www.w3.org/2000/svg" xmlns:xlink="http://www.w3.org/1999/xlink" height="753" width="1006">
  <defs>
    <rect id="rect-1" opacity="1" x="-162" y="33" width="1011" height="625.338"/>
    <mask id="mask-2" maskUnits="userSpaceOnUse" maskContentUnits="userSpaceOnUse">
      <rect opacity="1" x="0" y="0" width="1006" height="753" fill="Black"/>
      <use xlink:href="#rect-1" fill="White"/>
    </mask>
    <rect id="rect-18" opacity="1" x="474" y="63" width="308.46000000000004" height="193.5000000000001"/>
    <mask id="mask-19" maskUnits="userSpaceOnUse" maskContentUnits="userSpaceOnUse">
      <rect opacity="1" x="0" y="0" width="1006" height="753" fill="Black"/>
      <use xlink:href="#rect-18" fill="White"/>
    </mask>
  </defs>
  <g>
    <g opacity="1">
      <g/>
      <g mask="url(#mask-2)">
        <g opacity="1">
          <g transform="translate(344.2350183109497, 315.225717559407) rotate(16.714105976363253) translate(-344.2350183109497, -315.225717559407)" opacity="1">
            <rect fill="rgb(176,176,176)" fill-opacity="1" opacity="1" x="77.23501831094973" y="100.72571755940697" width="534" height="429" rx="0" ry="0"/>
          </g>
          <g opacity="1">
            <rect fill="rgb(63,61,86)" fill-opacity="1" opacity="1" x="295" y="36.337999999999994" width="554" height="278.66200000000003" rx="0" ry="0"/>
          </g>
          <g opacity="1">
            <rect fill-opacity="0" stroke="rgb(253,253,253)" stroke-opacity="1" stroke-width="10" stroke-linecap="butt" stroke-linejoin="miter" opacity="1" x="475.9462181056465" y="64.95652173913048" width="60.93219645155605" height="144.23086956521735" rx="0" ry="0"/>
          </g>
          <g opacity="1">
            <rect fill-opacity="0" stroke="rgb(253,253,253)" stroke-opacity="1" stroke-width="10" stroke-linecap="butt" stroke-linejoin="miter" opacity="1" x="476.03574413850515" y="209.1873913043482" width="152.19036342528355" height="45.32478260869564" rx="0" ry="0"/>
          </g>
          <g opacity="1">
            <rect fill-opacity="0" stroke="rgb(253,253,253)" stroke-opacity="1" stroke-width="10" stroke-linecap="butt" stroke-linejoin="miter" opacity="1" x="628.23" y="209.21869565217355" width="152.19036342528327" height="45.32478260869566" rx="0" ry="0"/>
          </g>
          <g opacity="1">
            <rect fill-opacity="0" stroke="rgb(253,253,253)" stroke-opacity="1" stroke-width="10" stroke-linecap="butt" stroke-linejoin="miter" opacity="1" x="597.9118143502506" y="64.95652173913048" width="60.93219645155595" height="144.23086956521735" rx="0" ry="0"/>
          </g>
          <g opacity="1">
            <rect fill-opacity="0" stroke="rgb(253,253,253)" stroke-opacity="1" stroke-width="10" stroke-linecap="butt" stroke-linejoin="miter" opacity="1" x="719.5776930065852" y="64.95652173913048" width="60.932196451555654" height="144.23086956521735" rx="0" ry="0"/>
          </g>
          <g opacity="1">
            <rect fill-opacity="0" stroke="rgb(253,253,253)" stroke-opacity="1" stroke-width="10" stroke-linecap="butt" stroke-linejoin="miter" opacity="1" x="536.8239204502439" y="64.95652173913048" width="61.08789390000771" height="72.69652173913043" rx="0" ry="0"/>
          </g>
          <g opacity="1">
            <rect fill-opacity="0" stroke="rgb(253,253,253)" stroke-opacity="1" stroke-width="10" stroke-linecap="butt" stroke-linejoin="miter" opacity="1" x="658.7466998965238" y="64.95652173913048" width="60.93219645155591" height="73.11130434782613" rx="0" ry="0"/>
          </g>
          <g opacity="1">
            <rect fill-opacity="0" stroke="rgb(253,253,253)" stroke-opacity="1" stroke-width="10" stroke-linecap="butt" stroke-linejoin="miter" opacity="1" x="658.6182495015505" y="138.0952173913045" width="60.93219645155597" height="71.10782608695659" rx="0" ry="0"/>
          </g>
          <g opacity="1">
            <path fill="rgb(255,101,132)" fill-opacity="1" opacity="1" fill-rule="evenodd" d="M374.62109999999996 120.47209000000001L333.3174399999999 120.47209000000001C330.49879998866993 104.17752391542956 330.49879998866993 87.5199760845706 333.3174399999999 71.22541000000007L374.62109999999996 71.22541000000007C369.9679199880717 87.31122060029313 369.9679199880717 104.38627939970686 374.62109999999996 120.47208999999998L374.62109999999996 120.47209000000001Z"/>
          </g>
          <g opacity="1">
            <path fill="rgb(236,104,18)" fill-opacity="1" opacity="1" fill-rule="evenodd" d="M410.37890000000004 141.44981L451.6825600000001 141.44981C454.50120004619407 125.15524727632496 454.50120004619407 108.49770272367505 451.68255999999997 92.20313999999996L410.37890000000004 92.20313999999996C415.0320802700486 108.28894716341753 415.0320802700485 125.36400283658256 410.37890000000004 141.44981L410.37890000000004 141.44981Z"/>
          </g>
          <g opacity="1">
            <path fill="rgb(236,104,18)" fill-opacity="1" opacity="1" fill-rule="evenodd" d="M728.0000000000001 126.24667000000005L769.3036600000001 126.24667000000005C772.1223000461941 109.95210727632497 772.1223000461941 93.29456272367509 769.30366 77L728.0000000000001 77C732.6531802700487 93.0858071634176 732.6531802700486 110.16086283658262 728.0000000000001 126.24667000000005L728.0000000000001 126.24667000000005Z"/>
          </g>
          <g opacity="1">
            <path fill="rgb(236,104,18)" fill-opacity="1" opacity="1" fill-rule="evenodd" d="M362.37890000000004 212.44981L403.6825600000001 212.44981C406.50120004619407 196.15524727632493 406.50120004619407 179.49770272367505 403.68255999999997 163.20313999999996L362.37890000000004 163.20313999999996C367.0320802700486 179.28894716341756 367.0320802700485 196.36400283658259 362.37890000000004 212.44981L362.37890000000004 212.44981Z"/>
          </g>
          <g opacity="1">
            <path fill="rgb(236,104,18)" fill-opacity="1" opacity="1" fill-rule="evenodd" d="M606.0000000000001 126.24667000000005L647.3036600000001 126.24667000000005C650.1223000461941 109.952107276325 650.1223000461941 93.29456272367509 647.30366 77L606.0000000000001 77C610.6531802700487 93.08580716341757 610.6531802700486 110.1608628365826 606.0000000000001 126.24667000000005L606.0000000000001 126.24667000000005Z"/>
          </g>
          <g/>
          <g mask="url(#mask-19)"/>
        </g>
      </g>
    </g>
    <g opacity="1">
      <g opacity="1">
        <g opacity="1">
          <path fill="rgb(160,97,106)" fill-opacity="1" opacity="1" fill-rule="evenodd" d="M866 473.79172999999986C866 473.79172999999986 857 517.7917299999999 872 513.7917299999999C887 509.79172999999986 881 471.79172999999986 881 471.79172999999986L866 473.79172999999986Z"/>
        </g>
        <g opacity="1">
          <path fill="rgb(208,205,225)" fill-opacity="1" opacity="1" fill-rule="evenodd" d="M908 291.79173L898 291.79173C898 291.79173 887 299.79173 888 308.79173C889 317.79173 870 395.79173 870 405.79173C870 415.79173 866 418.79173 866 424.79173C866 430.79173 868 434.79173 866 437.79173C864 440.79173000000003 860 458.79173 861 465.79173C861.58150163551 470.4402818013755 861.58150163551 475.14317819862435 861 479.7917299999999L886 479.7917299999999C886 479.7917299999999 904 418.7917299999999 908 415.7917299999999C912 412.7917299999999 914 407.7917299999999 914 404.7917299999999C914 401.7917299999999 912 401.7917299999999 917 397.7917299999999C922 393.7917299999999 919 375.7917299999999 919 375.7917299999999L926 357.7917299999999L908 291.79173Z"/>
        </g>
        <g opacity="0.1">
          <path fill="rgb(0,0,0)" fill-opacity="1" opacity="1" fill-rule="evenodd" d="M908 291.79173L898 291.79173C898 291.79173 887 299.79173 888 308.79173C889 317.79173 870 395.79173 870 405.79173C870 415.79173 866 418.79173 866 424.79173C866 430.79173 868 434.79173 866 437.79173C864 440.79173000000003 860 458.79173 861 465.79173C861.58150163551 470.4402818013755 861.58150163551 475.14317819862435 861 479.7917299999999L886 479.7917299999999C886 479.7917299999999 904 418.7917299999999 908 415.7917299999999C912 412.7917299999999 914 407.7917299999999 914 404.7917299999999C914 401.7917299999999 912 401.7917299999999 917 397.7917299999999C922 393.7917299999999 919 375.7917299999999 919 375.7917299999999L926 357.7917299999999L908 291.79173Z"/>
        </g>
        <g opacity="1">
          <path fill="rgb(160,97,106)" fill-opacity="1" opacity="1" fill-rule="evenodd" d="M768 449.29173C768 449.29173 759 493.2917299999999 774 489.2917299999999C789 485.2917299999999 783 447.2917299999999 783 447.2917299999999L768 449.29173Z"/>
        </g>
        <g opacity="1">
          <path fill="rgb(160,97,106)" fill-opacity="1" opacity="1" fill-rule="evenodd" d="M771 654.29133L765 679.29133L787 693.29133L793 663.29133L771 654.29133Z"/>
        </g>
        <g opacity="1">
          <path fill="rgb(160,97,106)" fill-opacity="1" opacity="1" fill-rule="evenodd" d="M875 685.29133L864 700.29133L877 715.29133L895 715.29133L895 685.29133L875 685.29133Z"/>
        </g>
        <g opacity="1">
          <path fill="rgb(47,46,65)" fill-opacity="1" opacity="1" fill-rule="evenodd" d="M898 702.2917299999999L892 702.2917299999999C889.0303999410785 701.6877438305052 885.9696000589216 701.6877438305052 883 702.2917299999999C877 703.2917299999999 868.85833 693.6667299999999 868.85833 693.6667299999999L861 700.2917299999999C861 700.2917299999999 845 704.2917299999999 853 723.2917299999999L871 734.2917299999999C871 734.2917299999999 880 753.2917299999999 898 750.2917299999999C916 747.2917299999999 903 727.2917299999999 903 727.2917299999999L898 702.2917299999999Z"/>
        </g>
        <g opacity="1">
          <path fill="rgb(47,46,65)" fill-opacity="1" opacity="1" fill-rule="evenodd" d="M771 667.2917299999999L769.47881 660.63002L756 664.2917299999999C756 664.2917299999999 728 646.2917299999999 728 670.2917299999999C728 694.2917299999999 750 702.2917299999999 750 702.2917299999999C750 702.2917299999999 758 701.2917299999999 758 708.2917299999999C758 715.2917299999999 779 726.2917299999999 787 722.2917299999999C795 718.2917299999999 795 708.2917299999999 795 708.2917299999999L793 680.2917299999999L784 682.2917299999999C784 682.2917299999999 767 681.2917299999999 770 677.2917299999999C773 673.2917299999999 771 667.2917299999999 771 667.2917299999999L771 667.2917299999999Z"/>
        </g>
        <g opacity="1">
          <path fill="rgb(47,46,65)" fill-opacity="1" opacity="1" fill-rule="evenodd" d="M800 437.29173C800 437.29173 788 453.29173 788 462.29173C788 471.29173 784 551.2917299999999 784 551.2917299999999C784 551.2917299999999 762 653.2917299999999 768 659.2917299999999C774 665.2917299999999 792 674.2917299999999 795 671.2917299999999C798 668.2917299999999 819 559.2917299999999 819 559.2917299999999L844 492.2917299999999L867 588.2917299999999C867 588.2917299999999 866 671.2917299999999 870 672.2917299999999C874 673.2917299999999 876 674.2917299999999 874 678.2917299999999C872 682.2917299999999 869 690.2917299999999 869 690.2917299999999C869 690.2917299999999 894 696.2917299999999 899 692.2917299999999C904 688.2917299999999 905 591.2917299999999 899 557.2917299999999C893 523.2917299999999 900 445.2917299999999 900 445.2917299999999L800 437.29173Z"/>
        </g>
        <g opacity="1">
          <ellipse fill="rgb(160,97,106)" fill-opacity="1" opacity="1" rx="30" ry="30" cx="836.5" cy="213.79133"/>
        </g>
        <g opacity="1">
          <path fill="rgb(160,97,106)" fill-opacity="1" opacity="1" fill-rule="evenodd" d="M827.5 232.79172999999997C827.5 232.79172999999997 831.5 253.79172999999997 827.5 259.79173C823.5 265.79173 881.5 261.79173 881.5 261.79173C881.5 261.79173 853.5 229.79172999999997 856.5 223.79172999999997C859.5 217.79172999999997 827.5 232.79172999999997 827.5 232.79172999999997L827.5 232.79172999999997Z"/>
        </g>
        <g opacity="1">
          <path fill="rgb(208,205,225)" fill-opacity="1" opacity="1" fill-rule="evenodd" d="M802 267.29173C802 267.29173 822 241.29172999999997 847 246.29172999999997C853.74943 247.64160999999996 859.91575 248.99149999999997 865.32188 250.243C884.371 254.65278999999998 900.2111600000001 268.22855 906.71875 286.66673C908.40625 291.44798 909.25 296.04173 908.5 299.79173C905.5 314.79173 907 433.29173 907 433.29173C907 433.29173 899 436.29173 900 440.29173C901 444.29173000000003 908 449.29173 901 449.29173C894 449.29173 788 445.29173 790 442.29173C792 439.29173 802 267.29173 802 267.29173L802 267.29173Z"/>
        </g>
        <g opacity="1">
          <path fill="rgb(208,205,225)" fill-opacity="1" opacity="1" fill-rule="evenodd" d="M812 267.29173L802 267.29173C802 267.29173 791 275.29173 792 284.29173C793 293.29173 774 371.29173 774 381.29173C774 391.29173 770 394.29173 770 400.29173C770 406.29173000000003 772 410.29173 770 413.29173C768 416.29173 764 434.29173 765 441.29173C765.58150163551 445.94028180137553 765.58150163551 450.6431781986244 765 455.29173L790 455.29173C790 455.29173 808 394.29173 812 391.29173C816 388.29173 818 383.29173 818 380.29173C818 377.29173 816 377.29173 821 373.29173C826 369.29173 823 351.29173 823 351.29173L830 333.29173L812 267.29173Z"/>
        </g>
        <g opacity="0.1">
          <path fill="rgb(0,0,0)" fill-opacity="1" opacity="1" fill-rule="evenodd" d="M797.421 440.97233L827.5 374.79132999999996L812.461 445.17533L797.421 440.97233Z"/>
        </g>
        <g opacity="1">
          <path fill="rgb(47,46,65)" fill-opacity="1" opacity="1" fill-rule="evenodd" d="M826.03434 168.42446L826.05023 165.94894000000002C828.117164014825 165.68603982219742 830.2130289634493 165.75951033631182 832.25648 166.1665C832.2790066973728 164.67213905839228 831.9689216207748 163.19147086238493 831.3486800000001 161.8317200000001C833.4078219966034 162.10268364093614 835.4108838071967 162.69886521589677 837.2830600000002 163.598L837.97229 159L855.88351 165.277C862.31295 167.53021999999999 869.10775 170.03913999999997 873.2806 175.4245C877.93271 181.42838 878.2699700000001 189.82935 876.4844400000001 197.21179999999998C874.6989100000001 204.59424999999996 871.0660200000001 211.37663999999998 868.35536 218.4718C867.3668967655099 221.50120695573165 866.0926850069702 224.4297871900213 864.5499199999999 227.21802C859.13633 235.94469999999998 846.91426 239.05888000000002 837.33739 235.35139C833.80301 233.98313 830.46572 231.70185 828.67453 228.36185000000003C827.7577965784936 226.28986257147412 826.977792885442 224.1600416095532 826.3395300000001 221.98607C824.67526 217.57693000000003 822.24488 208.35335 818.2049 205.92666C816.42715 204.85882 813.7161299999999 209.44342 812.18106 208.04905C808.23617 204.46573999999998 808.21252 198.20381999999998 809.77362 193.10805C811.2459045168964 188.00182253696968 813.0851583829804 183.00862961639788 815.27702 178.16746000000006C816.2176800000001 176.21399999999997 826.0362500000001 168.12752999999998 826.0343400000002 168.42445999999998L826.03434 168.42446Z"/>
        </g>
      </g>
    </g>
    <g opacity="1">
      <g opacity="1">
        <path fill="rgb(47,46,65)" fill-opacity="1" opacity="1" fill-rule="evenodd" d="M155.926177246787 440.64755149255126L144.16361241571823 552.3029028289062C144.16361241571823 552.3029028289062 129.46040159955433 650.7359157065342 132.4010475846495 666.1619883799317C135.34169356974462 681.5880610533292 131.66588369971174 683.7917761739151 131.66588369971174 683.7917761739151L153.72069514662965 683.7917761739151C153.72069514662965 683.7917761739151 152.98554081634774 674.2423089788878 157.39650501666253 669.8348596436313C161.80746921697732 665.4274103083749 159.60198711681994 652.2050623026057 159.60198711681994 652.2050623026057L215.4742130603479 481.7837325588882L247.08611679283308 577.2784426973311C247.08611679283308 577.2784426973311 252.23225443274146 682.322639124886 252.96739920836748 683.7917761739151C253.7025439839935 685.2609132229442 255.90803563880672 705.0944447786403 255.90803563880672 705.0944447786403L283.1089465070096 705.0944447786403C283.1089465070096 705.0944447786403 279.43314619163255 693.3412529159847 284.57927427688503 689.6683339170738C289.7254023621375 685.9954149181631 294.13635700779645 688.9337653925593 289.7254119167934 682.3225913896747C285.31446682579036 675.7114173867901 283.844129501259 667.631096787834 285.31444771647864 663.9582255241344C286.7847659316983 660.2853542604347 286.78477548635414 645.5938501115519 286.78477548635414 645.5938501115519C286.78477548635414 645.5938501115519 284.57929338619675 447.25868730726677 272.08156467019023 440.6474942102977C259.58383595418377 434.0363011133286 155.926177246787 440.64755149255126 155.926177246787 440.64755149255126Z"/>
      </g>
      <g opacity="1">
        <path fill="rgb(47,46,65)" fill-opacity="1" opacity="1" fill-rule="evenodd" d="M265.88266638494565 713.5861665220738C265.88266638494565 713.5861665220738 253.31206430878396 711.7020768288515 253.31206430878396 712.3301099089397C253.31206430878396 712.9581429890278 238.2273360845964 753.780054518701 253.31206430878396 753.1520214386129C268.3967925329715 752.5239883585248 325.59303580136964 744.3596155996324 321.8218609113146 729.2869076008972C318.0506860212596 714.2141996021619 299.1947733523612 718.6104502568634 299.1947733523612 718.6104502568634L282.2244529058182 709.1900113377947L265.88266638494565 713.5861665220738Z"/>
      </g>
      <g opacity="1">
        <path fill="rgb(47,46,65)" fill-opacity="1" opacity="1" fill-rule="evenodd" d="M142.1173204366498 700.5791425071275C142.1173204366498 700.5791425071275 154.68793206746733 698.6950528139052 154.68793206746733 699.3230763469511C154.68793206746733 699.9510998799971 169.77265073699905 740.7730209567125 154.68793206746733 740.1449974236666C139.60321339793563 739.5169738906206 82.40696057488167 731.3525820376439 86.17812591028085 716.2798740389086C89.94929124568004 701.2071660401733 108.80521346923425 705.6034166948748 108.80521346923425 705.6034166948748L125.7755339157772 696.1829682287639L142.1173204366498 700.5791425071275Z"/>
      </g>
      <g opacity="1">
        <path fill="rgb(208,205,225)" fill-opacity="1" opacity="1" fill-rule="evenodd" d="M202.2298548723856 530.2566532917858L239.3554256366408 530.2566532917858C241.8889477513389 515.622050264023 241.88894775133883 500.6614421366795 239.3554256366408 486.0268391089166L202.2298548723856 486.0268391089166C206.41233832974484 500.47395336576994 206.41233832974484 515.8095390349324 202.2298548723856 530.2566532917858Z"/>
      </g>
      <g opacity="1">
        <path fill="rgb(236,104,18)" fill-opacity="1" opacity="1" fill-rule="evenodd" d="M191.41845603101768 531.7999135768152L228.5440267952729 531.7999135768152C231.07754890997091 517.1653105490524 231.07754890997091 502.20470242170904 228.5440267952729 487.5700993939461L191.41845603101768 487.5700993939461C195.60093948837698 502.0172136507995 195.60093948837698 517.3527993199621 191.41845603101774 531.7999135768152L191.41845603101768 531.7999135768152Z"/>
      </g>
      <g opacity="1">
        <ellipse fill="rgb(255,185,185)" fill-opacity="1" opacity="1" rx="28.930915074724155" ry="28.907861552209802" cx="216.4084673091973" cy="201.89604506025765"/>
      </g>
      <g opacity="1">
        <path fill="rgb(255,185,185)" fill-opacity="1" opacity="1" fill-rule="evenodd" d="M193.41936339480665 198.23789533570195C193.41936339480665 198.23789533570195 188.27322575489828 249.65813121566526 181.65679856373788 253.3310120264071C175.04037137257748 257.003892837149 232.38287731270177 260.6767545538063 232.38287731270177 260.6767545538063C232.38287731270177 260.6767545538063 218.41482082681978 213.66397755614165 222.82578502713451 209.25652822088523C227.23674922744925 204.84907888562884 193.41936339480665 198.23789533570195 193.41936339480665 198.23789533570195Z"/>
      </g>
      <g opacity="1">
        <path fill="rgb(87,90,137)" fill-opacity="1" opacity="1" fill-rule="evenodd" d="M255.17285264455734 251.86185588329357C255.17285264455734 251.86185588329357 234.588359412859 232.0283338746397 211.0632201960656 235.7012051383393C187.5380809792722 239.3740764020389 170.62938806295088 243.78152573729528 170.62938806295088 243.78152573729528C170.62938806295088 243.78152573729528 134.6065296848068 262.8804696743923 133.87136579986904 278.3065423477898C133.13620191493132 293.7326150211872 147.1042584008133 351.7640153569929 147.1042584008133 351.7640153569929C147.1042584008133 351.7640153569929 153.72069514662957 446.52413787683673 154.45585903156731 446.52413787683673C155.19102291650506 446.52413787683673 278.69798230669494 445.0550294689344 278.69798230669494 445.0550294689344L255.90800697483925 321.64644808175484L255.17285264455734 251.86185588329357Z"/>
      </g>
      <g opacity="1">
        <path fill="rgb(255,185,185)" fill-opacity="1" opacity="1" fill-rule="evenodd" d="M250.3648733844329 428.6225648841856C245.60104618898367 429.9080741226494 237.38936410273084 428.1303671211777 228.81727084322335 425.3243291052729C213.52607606080934 420.3071770110412 197.09517326483945 411.9991403604265 197.09517326483945 411.9991403604265C197.09517326483945 411.9991403604265 144.16361241571823 390.69647175570134 128.72523771461658 379.67783887051803C113.28686301351495 368.65920598533467 123.57910007470822 324.58472217981284 123.57910007470822 324.58472217981284L147.10423929150164 331.930464707212L145.63391152162615 359.10972924326506L203.711590901344 396.5730390459023C212.83755646883702 397.4281297902075 221.84852849749916 399.23774215992034 230.59648152736344 401.97214920632376C240.37415259784513 405.1822371441764 249.872369094075 410.1846867933487 253.30550981487207 417.86835642809785C253.84093253544717 419.04088440984356 254.22151533335042 420.2779939473542 254.43768875961953 421.5485789143271C255.13605766488539 425.6034273383012 253.48932228408222 427.7704340814501 250.3648733844329 428.6225648841856Z"/>
      </g>
      <g opacity="0.15">
        <path fill="rgb(0,0,0)" fill-opacity="1" opacity="1" fill-rule="evenodd" d="M253.3055098148723 417.8683850692249C252.28371580914063 421.6734733209935 251.2911781596165 425.29492421515454 250.36487338443303 428.6225648841858C245.60104618898376 429.9080741226496 237.38936410273095 428.1303671211779 228.81727084322347 425.32432910527314L230.59648152736364 401.97217784745084C240.37415259784535 405.18226578530346 249.8723690940752 410.1847154344758 253.3055098148723 417.8683850692249Z"/>
      </g>
      <g opacity="1">
        <path fill="rgb(255,185,185)" fill-opacity="1" opacity="1" fill-rule="evenodd" d="M242.67512392855082 310.6278247436138L238.26415972823605 349.5602906893647L230.9492967492188 445.6223147192094C230.9492967492188 445.6223147192094 190.4787269643673 494.2715024931005 213.26870229622298 495.74064908917194C236.0586776280787 497.20979568524336 248.5564063440852 447.99329401995044 248.5564063440852 447.99329401995044C248.5564063440852 447.99329401995044 271.34638167594085 370.1283812225332 270.6112177910031 353.96774002462115C269.8760539060654 337.80709882670914 270.6112177910031 310.62782474361387 270.6112177910031 310.62782474361387L242.67512392855082 310.6278247436138Z"/>
      </g>
      <g opacity="1">
        <path fill="rgb(47,46,65)" fill-opacity="1" opacity="1" fill-rule="evenodd" d="M249.08041233477496 198.66961258607947C249.8369867056825 198.36714969583824 250.5395430545803 197.94424946681093 251.16079532591021 197.41733660167492C252.74017993763852 195.88579053748174 252.47390123380146 193.29049393212165 251.78805848235282 191.20085641933673C251.10221573090413 189.11121890655178 250.10009476156415 186.95082826367948 250.59119451751224 184.80714494473827C250.8200380797355 183.80821882042372 251.3648541108629 182.89458597153762 251.52048989997624 181.881702071459C251.89057038494946 179.47318380060548 249.96750480235693 177.27800373578768 247.83897590040192 176.08874777725097C245.7104469984469 174.8994918187143 243.26220975715114 174.31366621239704 241.25061073346802 172.93612348667884C238.16562256247227 170.82353488433378 236.46221851783272 167.09768708320948 233.33024054937488 165.05529788250146C230.26739051597968 163.05798981528042 226.37568364239803 162.99607724631318 222.71827603952906 163.00015383335239L211.79943509314668 163.01230721813192C206.0932513006887 163.01866554826796 199.82283641641956 163.2300466106432 195.57601164892318 167.0381899159306C194.2842986154763 168.19646572237806 193.26121473120511 169.63080380241945 191.95309635366664 170.77054879986684C189.31851465936094 173.06603009052424 185.76272082143893 173.98225018785908 182.83699920877888 175.89355849852546C178.39907253442743 178.85926560831518 175.75887990208645 183.86267181226657 175.81701201855273 189.19707545747272C175.9203265122407 194.03821828085165 178.2818648063688 198.7410531032085 177.66827436244512 203.54437054520758C177.25666934315507 206.76649730333276 175.51594481277195 209.86252672746886 175.9732784149521 213.07852428447194C176.51559112624722 216.89251037961407 180.01694253514552 219.62465428853253 183.60762042156978 221.02739165873868C187.19829830799407 222.4301290289448 191.11285991836488 222.93383097785943 194.60649116533773 224.5629860019788C197.45819285914078 225.89279351646547 200.4373154433371 228.01246602415728 203.4433343837465 227.08193491049525C205.98636336571354 226.29473354207684 207.38176352442645 223.61112679593853 208.29288595146693 221.1116061183933C209.35827199243448 218.18816066006963 210.14098020375826 215.1694746092275 210.63028918492213 212.09689740070777C210.99614651201037 209.79851380920752 211.23875833331107 207.3625859800649 212.5895955771474 205.46671523671077C214.20244430099797 203.36899240513935 216.78717689749897 202.25507015748263 219.42100252489516 202.5226365369667C225.31683668128653 203.04044901432135 228.63574193676106 213.0737030281376 234.0576078351404 210.7009670716232C236.74609689774235 209.5244182263163 238.811775273527 206.0030680701077 240.96519405396688 204.08300512170146C243.40143540678287 201.90542553662107 246.13354218691472 200.08292786147348 249.08041233477496 198.66961258607947Z"/>
      </g>
      <g opacity="1">
        <path fill="rgb(87,90,137)" fill-opacity="1" opacity="1" fill-rule="evenodd" d="M142.69329420049866 271.69536834490503C142.69329420049866 271.69536834490503 127.99008338433475 276.83740529876053 122.10880096880035 297.4054862848867C116.22751855326594 317.9735672710129 118.43299109876746 331.93045516016997 118.43299109876746 331.93045516016997L149.30974050097075 337.0724921140255L142.69329420049866 271.69536834490503Z"/>
      </g>
      <g opacity="1">
        <path fill="rgb(87,90,137)" fill-opacity="1" opacity="1" fill-rule="evenodd" d="M240.46964182839346 250.39274747539105C240.46964182839346 250.39274747539105 266.93541747562614 244.51615154406323 270.6112177910031 269.4916914124881C272.9110326281766 286.2919196506266 274.1387824755765 303.22133407626444 274.287027661036 320.1773492208946C274.287027661036 320.1773492208946 249.29157022902294 308.42414781119675 238.26415972823605 320.1773492208946L240.46964182839346 250.39274747539105Z"/>
      </g>
    </g>
  </g>
</svg>